; NON-PLATED HOLES START AT T1
; THROUGH (PLATED) HOLES START AT T100
M48
INCH
T100C0.039370
%
T100
X005577Y003251
X008166Y008635
X006166Y008635
X004166Y008635
X002166Y008635
X010242Y005133
X003135Y006789
X013166Y000854
X011166Y000854
X009166Y008635
X007166Y008635
X014541Y005133
X002359Y006102
X014166Y000854
X012166Y000854
X010166Y000854
X013398Y006789
X013166Y008635
X011166Y008635
X014174Y006102
X014166Y008635
X012166Y008635
X010166Y008635
X001992Y005133
X006291Y005133
X011385Y006789
X003623Y002769
X002117Y004104
X012910Y002769
X002706Y003251
X011873Y002769
X012392Y007037
X004141Y007037
X004660Y002769
X010367Y004104
X014416Y004104
X013827Y003251
X005166Y000854
X003166Y000854
X010609Y006102
X008166Y000854
X006166Y000854
X004166Y000854
X002166Y000854
X010956Y003251
X005148Y006789
X009166Y000854
X007166Y000854
X005166Y008635
X003166Y008635
X006166Y004104
X005924Y006102
T00
M30
