G04 MADE WITH FRITZING*
G04 WWW.FRITZING.ORG*
G04 DOUBLE SIDED*
G04 HOLES PLATED*
G04 CONTOUR ON CENTER OF CONTOUR VECTOR*
%ASAXBY*%
%FSLAX23Y23*%
%MOIN*%
%OFA0B0*%
%SFA1.0B1.0*%
%ADD10C,0.070866*%
%ADD11C,0.078740*%
%ADD12C,0.016000*%
%LNCOPPER1*%
G90*
G70*
G54D10*
X414Y704D03*
X515Y679D03*
X592Y610D03*
X629Y513D03*
X617Y410D03*
X558Y325D03*
X466Y277D03*
X362Y277D03*
X271Y325D03*
X212Y410D03*
X199Y513D03*
X236Y610D03*
X314Y679D03*
X1239Y704D03*
X1340Y679D03*
X1417Y610D03*
X1454Y513D03*
X1442Y410D03*
X1383Y325D03*
X1291Y277D03*
X1187Y277D03*
X1096Y325D03*
X1037Y410D03*
X1024Y513D03*
X1061Y610D03*
X1139Y679D03*
G54D11*
X217Y864D03*
X217Y85D03*
X317Y864D03*
X317Y85D03*
X417Y864D03*
X417Y85D03*
X517Y864D03*
X517Y85D03*
X617Y864D03*
X617Y85D03*
X717Y864D03*
X717Y85D03*
X817Y864D03*
X817Y85D03*
X917Y864D03*
X917Y85D03*
X1017Y864D03*
X1017Y85D03*
X1117Y864D03*
X1117Y85D03*
X1217Y864D03*
X1217Y85D03*
X1317Y864D03*
X1317Y85D03*
X1417Y864D03*
X1417Y85D03*
G54D12*
X1088Y301D02*
X1025Y109D01*
D02*
X234Y635D02*
X219Y838D01*
D02*
X595Y635D02*
X614Y838D01*
D02*
X1470Y533D02*
X1490Y557D01*
X1490Y557D02*
X1450Y837D01*
X1450Y837D02*
X1436Y848D01*
D02*
X1179Y253D02*
X1125Y109D01*
D02*
X1282Y253D02*
X1226Y109D01*
D02*
X1376Y301D02*
X1323Y110D01*
D02*
X650Y528D02*
X690Y557D01*
X690Y557D02*
X714Y838D01*
D02*
X1125Y700D02*
X1031Y843D01*
D02*
X1028Y387D02*
X925Y109D01*
D02*
X1048Y632D02*
X929Y842D01*
D02*
X1416Y635D02*
X1410Y737D01*
X1410Y737D02*
X1332Y843D01*
D02*
X1011Y535D02*
X830Y842D01*
D02*
X205Y386D02*
X191Y335D01*
D02*
X191Y335D02*
X210Y257D01*
X210Y257D02*
X303Y107D01*
D02*
X1326Y700D02*
X1231Y843D01*
D02*
X378Y257D02*
X501Y105D01*
D02*
X130Y477D02*
X117Y261D01*
D02*
X117Y261D02*
X204Y107D01*
D02*
X177Y501D02*
X130Y477D01*
D02*
X270Y297D02*
X402Y106D01*
D02*
X270Y300D02*
X270Y297D01*
D02*
X482Y257D02*
X601Y105D01*
D02*
X572Y304D02*
X703Y106D01*
D02*
X630Y389D02*
X803Y107D01*
D02*
X1458Y391D02*
X1470Y377D01*
X1470Y377D02*
X1421Y110D01*
D02*
X1224Y724D02*
X1132Y844D01*
D02*
X515Y704D02*
X516Y838D01*
D02*
X415Y729D02*
X416Y838D01*
D02*
X314Y704D02*
X316Y838D01*
G04 End of Copper1*
M02*